<svg width="32" height="32" viewBox="0 0 32 32" fill="none" xmlns="http://www.w3.org/2000/svg">
<path d="M2.12496 16L3.76246 17.6375C10.5125 24.3875 21.4937 24.3875 28.2437 17.6375L29.875 16L28.2375 14.3625C21.4875 7.6125 10.5062 7.6125 3.75621 14.3625L2.12496 16ZM16 23.8875C11.2625 23.8875 6.52496 22.0813 2.91871 18.475L0.862463 16.4188C0.631213 16.1875 0.631213 15.8125 0.862463 15.575L2.91871 13.5188C10.1312 6.30625 21.8687 6.30625 29.0812 13.5188L31.1375 15.575C31.3687 15.8062 31.3687 16.1813 31.1375 16.4188L29.0812 18.475C25.475 22.0813 20.7375 23.8875 16 23.8875Z" fill="black" stroke="black" stroke-width="0.3"/>
<path d="M16 11.4688C13.5 11.4688 11.4687 13.5 11.4687 16C11.4687 18.5 13.5 20.5312 16 20.5312C18.5 20.5312 20.5312 18.5 20.5312 16C20.5312 13.5 18.5 11.4688 16 11.4688ZM16 21.7188C12.8437 21.7188 10.2812 19.15 10.2812 16C10.2812 12.8438 12.85 10.2812 16 10.2812C19.15 10.2812 21.7187 12.85 21.7187 16C21.7187 19.1562 19.1562 21.7188 16 21.7188Z" fill="black" stroke="black" stroke-width="0.3"/>
</svg>
