<svg width="25" height="25" viewBox="0 0 25 25" fill="none" xmlns="http://www.w3.org/2000/svg">
<g clip-path="url(#clip0_2046_6470)">
<path d="M11.3428 23.1291C11.6538 23.44 12.0718 23.6134 12.5102 23.6134C12.9435 23.6134 13.3717 23.4349 13.6776 23.1291L22.8385 13.9682C24.2302 12.5764 24.9949 10.7259 25 8.76323C25 6.79545 24.2353 4.94492 22.8436 3.5532C21.4519 2.16147 19.6064 1.39679 17.6387 1.39679C15.7066 1.39679 13.8866 2.13599 12.5051 3.48183C11.1185 2.13089 9.29343 1.3866 7.35624 1.3866C5.39356 1.3866 3.54812 2.15128 2.1564 3.5379C0.764682 4.92962 0 6.78015 0 8.74794C0 10.7106 0.76978 12.5611 2.1615 13.9529L11.3428 23.1291ZM3.04343 4.42493C4.19555 3.27281 5.73002 2.63558 7.36134 2.63558C8.99266 2.63558 10.5322 3.27281 11.6894 4.43003L12.0667 4.80727C12.1839 4.92453 12.342 4.9908 12.5102 4.9908C12.6733 4.9908 12.8365 4.92453 12.9537 4.80727L13.3208 4.44023C14.478 3.28301 16.0124 2.64577 17.6489 2.64577C19.2802 2.64577 20.8146 3.28301 21.9668 4.43513C23.124 5.59235 23.7561 7.12681 23.7561 8.75813C23.7561 10.3895 23.1189 11.9239 21.9617 13.0811L12.7957 22.2471C12.6478 22.395 12.3777 22.395 12.2247 22.2471L3.04853 13.0709C1.89131 11.9137 1.25408 10.3793 1.25408 8.74794C1.25408 7.11661 1.89131 5.58215 3.04343 4.42493Z" fill="black" stroke="black" stroke-width="0.3"/>
</g>
<defs>
<clipPath id="clip0_2046_6470">
<rect width="25" height="25" fill="white"/>
</clipPath>
</defs>
</svg>
